HIERARCHY
ROOT Hips
{
	OFFSET 0.000000  0.463670  0.080341
	CHANNELS 6 Xposition Yposition Zposition Zrotation Yrotation Xrotation 
	JOINT LHipJoint
	{
		OFFSET 0 0 0
		CHANNELS 3 Zrotation Yrotation Xrotation
		JOINT LeftUpLeg
		{
			OFFSET 0.949434 -0.248378 0.086503
			CHANNELS 3 Zrotation Yrotation Xrotation
			JOINT LeftLeg
			{
				OFFSET -0.076513 -3.879421 -0.177038
				CHANNELS 3 Zrotation Yrotation Xrotation
				JOINT LeftFoot
				{
					OFFSET -0.188964 -3.680973 -0.122632
					CHANNELS 3 Zrotation Yrotation Xrotation
					JOINT LeftToeBase
					{
						OFFSET 0.055451 -0.524480 1.120382
						CHANNELS 3 Zrotation Yrotation Xrotation
						End Site
						{
							OFFSET 0.007944 -0.006006 0.139660
						}
					}
				}
			}
		}
	}
	JOINT RHipJoint
	{
		OFFSET 0 0 0
		CHANNELS 3 Zrotation Yrotation Xrotation
		JOINT RightUpLeg
		{
			OFFSET -0.949434 -0.248378 0.086503
			CHANNELS 3 Zrotation Yrotation Xrotation
			JOINT RightLeg
			{
				OFFSET 0.076513 -3.879421 -0.177038
				CHANNELS 3 Zrotation Yrotation Xrotation
				JOINT RightFoot
				{
					OFFSET 0.188964 -3.680973 -0.122632
					CHANNELS 3 Zrotation Yrotation Xrotation
					JOINT RightToeBase
					{
						OFFSET -0.055451 -0.524480 1.120382
						CHANNELS 3 Zrotation Yrotation Xrotation
						End Site
						{
							OFFSET -0.007944 -0.006006 0.139660
						}
					}
				}
			}
		}
	}
	JOINT LowerBack
	{
		OFFSET 0 0 0
		CHANNELS 3 Zrotation Yrotation Xrotation
		JOINT Spine
		{
			OFFSET 0.000000 0.677144 0.028277
			CHANNELS 3 Zrotation Yrotation Xrotation
			JOINT Spine1
			{
				OFFSET 0.000000 2.156116 -0.508617
				CHANNELS 3 Zrotation Yrotation Xrotation
				JOINT Neck
				{
					OFFSET 0 0 0
					CHANNELS 3 Zrotation Yrotation Xrotation
					JOINT Neck1
					{
						OFFSET 0.000000 1.781871 0.216275
						CHANNELS 3 Zrotation Yrotation Xrotation
						JOINT Head
						{
							OFFSET 0.000000 1.015906 -0.026879
							CHANNELS 3 Zrotation Yrotation Xrotation
							End Site
							{
								OFFSET 0.000000 0.339197 0.983632
							}
						}
					}
				}
				JOINT LeftShoulder
				{
					OFFSET 0 0 0
					CHANNELS 3 Zrotation Yrotation Xrotation
					JOINT LeftArm
					{
						OFFSET 1.565866 1.184736 0.289545
						CHANNELS 3 Zrotation Yrotation Xrotation
						JOINT LeftForeArm
						{
							OFFSET 1.930940 -0.176441 -0.109244
							CHANNELS 3 Zrotation Yrotation Xrotation
							JOINT LeftHand
							{
								OFFSET 2.263412 -0.058986 0.122483
								CHANNELS 3 Zrotation Yrotation Xrotation
								JOINT LeftFingerBase
								{
									OFFSET 0 0 0
									CHANNELS 3 Zrotation Yrotation Xrotation
									JOINT LeftHandIndex1
									{
										OFFSET 0.944218 0.017559 0.358417
										CHANNELS 3 Zrotation Yrotation Xrotation
										End Site
										{
											OFFSET 0.237801 -0.022714 0.035813
										}
									}
								}
								JOINT LThumb
								{
									OFFSET 0 0 0
									CHANNELS 3 Zrotation Yrotation Xrotation
									End Site
									{
										OFFSET 0.234930 -0.092931 0.244282
									}
								}
							}
						}
					}
				}
				JOINT RightShoulder
				{
					OFFSET 0 0 0
					CHANNELS 3 Zrotation Yrotation Xrotation
					JOINT RightArm
					{
						OFFSET -1.565866 1.184736 0.289545
						CHANNELS 3 Zrotation Yrotation Xrotation
						JOINT RightForeArm
						{
							OFFSET -1.930940 -0.176441 -0.109244
							CHANNELS 3 Zrotation Yrotation Xrotation
							JOINT RightHand
							{
								OFFSET -2.263412 -0.058986 0.122483
								CHANNELS 3 Zrotation Yrotation Xrotation
								JOINT RightFingerBase
								{
									OFFSET 0 0 0
									CHANNELS 3 Zrotation Yrotation Xrotation
									JOINT RightHandIndex1
									{
										OFFSET -0.944218 0.017559 0.358417
										CHANNELS 3 Zrotation Yrotation Xrotation
										End Site
										{
											OFFSET -0.237801 -0.022714 0.035813
										}
									}
								}
								JOINT RThumb
								{
									OFFSET 0 0 0
									CHANNELS 3 Zrotation Yrotation Xrotation
									End Site
									{
										OFFSET -0.234930 -0.092931 0.244282
									}
								}
							}
						}
					}
				}
			}
		}
	}
}
MOTION
Frames: 10
Frame Time: .0083333
1.134309 9.539171 -6.649834 344.794006 -53.785099 30.144800 0.000000 0.000000 0.000000 2.329399 1.065700 -49.066601 3.473800 11.425100 33.727402 4.333500 18.055000 -48.093601 2.239600 9.348200 26.890800 0.000000 0.000000 0.000000 16.525799 -0.701500 -25.571899 -3.439400 -11.374500 33.553699 2.988200 -32.817200 -30.271299 -0.240700 3.157500 -8.717500 9.590900 2.288500 -1.841400 5.509100 3.569800 -11.250800 0.417100 0.995400 -10.917300 10.251400 15.481700 7.619200 -17.118000 25.983500 8.602301 -4.027600 10.457300 4.810500 -0.000000 0.000000 0.000000 -38.919800 27.670700 -28.916000 18.534500 -28.836100 -4.804200 -0.000000 -0.000000 37.570499 31.055599 4.578800 2.752200 -7.125000 0.000000 -0.000000 3.664600 35.301300 -0.874600 -0.000000 0.000000 0.000000 32.119801 -32.584000 -61.071301 -9.540700 16.018000 -1.345400 0.000000 0.000000 18.205000 -32.947399 19.880699 -12.429000 7.125000 -0.000000 -0.000000 -2.883800 -6.692400 -2.531300
1.111713 9.541989 -6.616740 346.609009 -52.068199 28.716900 0.000000 0.000000 0.000000 1.233601 1.123500 -49.233501 3.428000 11.357700 33.495800 4.080600 19.500500 -48.100601 2.273900 9.414700 27.101400 0.000000 0.000000 0.000000 15.959599 -1.079000 -26.054100 -3.506100 -11.472500 33.890499 3.268400 -33.684700 -30.421301 -0.347200 3.786200 -10.475900 8.696200 2.274500 -2.443500 5.211100 3.429400 -11.195300 0.599900 1.020600 -10.499200 10.026200 14.963000 7.046800 -16.472099 25.224001 9.681900 -3.909200 10.085200 5.148199 0.000000 0.000000 0.000000 -39.326401 27.504801 -31.694599 16.887501 -26.709299 -4.036700 -0.000000 -0.000000 44.117298 34.478600 -1.054200 -0.723900 -7.125000 0.000000 -0.000000 6.147300 28.679199 -2.455900 0.000000 0.000000 0.000000 32.902699 -32.141201 -61.624699 -9.548400 16.030001 -1.347500 0.000000 0.000000 16.022100 -32.888199 20.098400 -12.527900 7.125000 -0.000000 -0.000000 -2.812900 -6.458300 -2.481700
1.088564 9.536022 -6.592928 348.053986 -50.005901 27.721300 0.000000 0.000000 0.000000 0.201900 1.570100 -49.799500 3.421100 11.347400 33.460499 3.280200 20.744801 -45.945599 1.992900 8.851300 25.331200 0.000000 0.000000 0.000000 15.730099 -1.172300 -26.648899 -3.602900 -11.612400 34.374298 3.600200 -34.712700 -30.730900 -0.473200 4.411700 -12.237900 7.931800 2.223300 -3.122300 4.963600 3.250500 -11.177300 0.774200 1.012200 -10.084400 9.652300 14.376200 6.549500 -15.704200 24.312500 10.684099 -3.753300 9.664700 5.364599 0.000000 -0.000000 0.000000 -39.578098 27.005301 -31.975500 16.436199 -26.108601 -3.835900 -0.000000 -0.000000 44.208401 34.871498 -1.314700 -0.916000 -7.125000 0.000000 -0.000000 6.429200 28.355499 -2.619400 0.000000 -0.000000 0.000000 33.741901 -31.736700 -64.064796 -9.468100 15.903300 -1.325500 0.000000 0.000000 16.594200 -32.048901 20.923100 -12.602600 7.125000 -0.000000 -0.000000 -2.159900 -5.715600 -1.935400
1.060055 9.529558 -6.527459 348.602997 -48.101200 26.558100 0.000000 0.000000 0.000000 -0.187401 1.756000 -48.864201 3.427200 11.356500 33.491798 2.723900 20.865900 -43.798801 1.717000 8.249900 23.475599 0.000000 0.000000 0.000000 15.529202 -1.937900 -26.226200 -3.703600 -11.755200 34.871498 3.823400 -35.217300 -30.455299 -0.545600 4.732200 -13.146300 8.213200 2.086400 -3.465100 4.919000 3.015600 -10.808000 0.582200 0.903500 -9.454900 9.051900 13.886200 6.424800 -15.049000 23.582199 11.443501 -3.582500 9.320800 5.408701 -0.000000 -0.000000 0.000000 -40.303001 26.744900 -33.011200 16.283300 -25.903299 -3.768900 -0.000000 -0.000000 43.489101 34.288101 0.047500 0.032400 -7.125000 0.000000 -0.000000 6.084000 30.009001 -2.236900 -0.000000 -0.000000 0.000000 34.114601 -31.010500 -64.308403 -9.554700 16.040100 -1.349300 0.000000 0.000000 15.824000 -32.627102 20.045000 -12.376300 7.125000 -0.000000 -0.000000 -2.657000 -6.577500 -2.337700
1.031768 9.524364 -6.477348 349.015991 -46.234299 26.151899 0.000000 0.000000 0.000000 -0.851500 2.667000 -49.188202 3.464500 11.411600 33.680801 1.593600 21.520500 -39.362900 1.142500 6.787700 19.087999 0.000000 0.000000 0.000000 15.525200 -2.032100 -26.292900 -3.816400 -11.912000 35.421200 3.971600 -35.643299 -30.574100 -0.563600 4.808300 -13.362500 7.960200 1.939000 -4.034000 5.114200 2.759100 -10.810900 0.952100 0.820300 -9.153500 8.410900 13.413300 6.253400 -14.312600 22.927000 12.533600 -3.356200 8.987300 5.645201 -0.000000 -0.000000 0.000000 -41.330700 26.897200 -34.123299 16.266001 -25.879999 -3.761300 -0.000000 -0.000000 43.460899 34.131401 0.722600 0.489800 -7.125000 0.000000 -0.000000 6.008300 30.821199 -2.091500 -0.000000 -0.000000 0.000000 34.069099 -30.319401 -64.654602 -9.496400 15.948000 -1.333200 0.000000 0.000000 14.801800 -32.902802 20.105101 -12.538600 7.125000 -0.000000 -0.000000 -2.821000 -6.447300 -2.489500
1.004917 9.519282 -6.429724 349.665009 -44.657700 25.570299 0.000000 0.000000 0.000000 -1.719400 3.368700 -49.333500 3.516500 11.487700 33.942799 0.979200 21.472500 -36.209599 0.658400 5.189800 14.450700 0.000000 0.000000 0.000000 15.194401 -1.905800 -26.202101 -3.908700 -12.037900 35.866001 3.858800 -35.646000 -31.469900 -0.468600 4.390400 -12.177800 7.473000 2.070600 -4.406100 4.924300 2.891900 -10.863500 1.019500 0.928100 -8.990200 8.191000 12.724600 6.034600 -13.624700 21.856001 13.617802 -3.296400 8.532500 5.911800 -0.000000 -0.000000 0.000000 -41.728298 26.603001 -34.582298 16.204800 -25.797600 -3.734700 -0.000000 -0.000000 43.986599 34.110401 1.164400 0.788600 -7.125000 0.000000 -0.000000 6.021400 31.351801 -2.019100 -0.000000 -0.000000 0.000000 34.866199 -30.062599 -66.630798 -9.571600 16.066700 -1.354000 0.000000 0.000000 14.540200 -32.919498 20.086901 -12.535800 7.125000 -0.000000 -0.000000 -2.834300 -6.464300 -2.500300
0.983039 9.509447 -6.403646 350.233002 -42.921200 25.060400 0.000000 0.000000 0.000000 -2.136101 3.346100 -49.343700 3.583400 11.584400 34.277100 0.536100 21.502501 -33.753899 0.226200 3.061500 8.450000 0.000000 0.000000 0.000000 15.104801 -1.443300 -26.244101 -4.001000 -12.161800 36.306801 3.899200 -36.109600 -32.521999 -0.351600 3.809800 -10.542100 7.019900 2.155100 -4.460500 4.667800 3.003200 -10.932400 0.991000 1.014700 -9.029100 8.084700 12.069200 6.166300 -13.112000 20.761200 14.140400 -3.329000 8.121600 5.851400 0.000000 0.000000 0.000000 -41.965801 26.078300 -34.456902 16.242201 -25.847900 -3.750900 -0.000000 -0.000000 43.178902 33.260899 4.206200 2.754300 -7.125000 0.000000 -0.000000 5.492000 34.964100 -1.358700 0.000000 0.000000 0.000000 35.796600 -30.278000 -65.224197 -9.494200 15.944600 -1.332600 0.000000 0.000000 10.872200 -33.401100 19.978100 -12.696400 7.125000 -0.000000 -0.000000 -3.153800 -6.478500 -2.782100
0.953204 9.510000 -6.340884 350.313995 -40.924000 24.745399 0.000000 0.000000 0.000000 -2.134100 3.332000 -48.800301 3.653800 11.684900 34.626400 0.274800 20.991899 -31.504000 0.017200 0.847800 2.330100 0.000000 0.000000 0.000000 15.307098 -2.273300 -26.106001 -4.056300 -12.234900 36.568199 4.322200 -36.731701 -31.229700 -0.624900 5.058500 -14.075600 7.460900 2.196700 -5.112000 4.581300 2.986100 -10.908300 0.674700 0.980600 -8.604100 7.598400 11.413500 6.884700 -12.714300 19.738199 14.345299 -3.353400 7.724700 5.468300 0.000000 -0.000000 0.000000 -42.561199 26.194401 -35.507301 15.681700 -25.087200 -3.509900 -0.000000 -0.000000 44.748299 34.072399 2.784700 1.882000 -7.125000 0.000000 -0.000000 6.091000 33.296001 -1.755800 0.000000 -0.000000 0.000000 36.572102 -29.711500 -68.529800 -9.630200 16.159100 -1.370200 0.000000 0.000000 12.303100 -33.196899 20.393600 -12.844100 7.125000 -0.000000 -0.000000 -2.960000 -6.052200 -2.635000
0.926409 9.507513 -6.277956 350.315002 -38.916100 24.382000 0.000000 0.000000 0.000000 -1.826900 3.000500 -48.012501 3.719500 11.777500 34.949200 0.229900 20.105200 -30.064501 0.002400 -0.316800 -0.870600 0.000000 0.000000 0.000000 15.544102 -3.004200 -25.729200 -4.074300 -12.258700 36.653301 4.402300 -36.746498 -30.629400 -0.505100 4.556100 -12.646600 7.849000 2.222100 -5.560700 4.558400 2.968800 -10.836900 0.449300 0.955500 -8.252400 8.607600 11.120600 6.834300 -13.288200 19.473499 15.245998 -3.867300 7.642900 6.174400 -0.000000 0.000000 0.000000 -43.312901 26.267799 -36.187599 15.380900 -24.674000 -3.383300 -0.000000 -0.000000 45.228699 34.694401 1.477300 1.022500 -7.125000 0.000000 -0.000000 6.509500 31.734100 -2.124400 -0.000000 0.000000 0.000000 37.270100 -29.301701 -70.419296 -9.639200 16.173201 -1.372700 0.000000 0.000000 12.654600 -33.214199 20.403400 -12.858000 7.125000 -0.000000 -0.000000 -2.969300 -6.037100 -2.644200
0.902818 9.506685 -6.222376 350.373993 -37.181099 23.926300 0.000000 0.000000 0.000000 -1.353800 2.398900 -47.153500 3.772200 11.851000 35.206902 0.216700 19.490801 -29.178301 0.023200 -0.983300 -2.702800 0.000000 0.000000 0.000000 15.630100 -3.319100 -25.198900 -4.096200 -12.287300 36.756199 4.233300 -36.365501 -30.754999 -0.433600 4.225400 -11.711800 7.926900 2.294600 -5.825500 4.432200 3.010700 -10.344000 0.273500 1.005000 -7.533400 8.862800 10.774400 5.469000 -13.072500 18.927000 16.100201 -3.897400 7.377300 6.906601 -0.000000 0.000000 0.000000 -44.022800 25.264999 -35.304001 15.798100 -25.246099 -3.559400 -0.000000 -0.000000 41.569099 32.902599 5.149700 3.323600 -7.125000 0.000000 -0.000000 5.225100 36.064899 -1.151600 -0.000000 0.000000 0.000000 38.571701 -28.381201 -72.005302 -9.571300 16.066099 -1.353900 0.000000 0.000000 12.206400 -33.555000 20.157200 -12.874300 7.125000 -0.000000 -0.000000 -3.221700 -6.238700 -2.857200
